<?xml version="1.0" encoding="UTF-8"?>
<svg width="256" height="256" viewBox="0 0 256 256" xmlns="http://www.w3.org/2000/svg">
  <defs>
    <linearGradient id="grad1" x1="0%" y1="0%" x2="100%" y2="100%">
      <stop offset="0%" style="stop-color:#667eea;stop-opacity:1" />
      <stop offset="100%" style="stop-color:#764ba2;stop-opacity:1" />
    </linearGradient>
  </defs>
  
  <!-- Background Circle -->
  <circle cx="128" cy="128" r="120" fill="url(#grad1)" stroke="#ffffff" stroke-width="4"/>
  
  <!-- Music Note -->
  <g fill="#ffffff">
    <!-- Note stem -->
    <rect x="95" y="80" width="6" height="80" rx="3"/>
    
    <!-- Note head -->
    <ellipse cx="98" cy="160" rx="12" ry="8"/>
    
    <!-- Musical staff lines -->
    <rect x="120" y="100" width="60" height="2" rx="1"/>
    <rect x="120" y="115" width="60" height="2" rx="1"/>
    <rect x="120" y="130" width="60" height="2" rx="1"/>
    <rect x="120" y="145" width="60" height="2" rx="1"/>
    <rect x="120" y="160" width="60" height="2" rx="1"/>
  </g>
  
  <!-- Download arrow -->
  <g fill="#ffffff" opacity="0.8">
    <rect x="185" y="180" width="4" height="30" rx="2"/>
    <polygon points="187,210 175,198 187,186 199,198"/>
  </g>
  
  <!-- Audio waves -->
  <g stroke="#ffffff" stroke-width="3" fill="none" opacity="0.6">
    <path d="M 200 100 Q 210 105 200 110"/>
    <path d="M 205 95 Q 220 105 205 115"/>
    <path d="M 210 90 Q 230 105 210 120"/>
  </g>
</svg>
